<svg version="1.1" id="Layer_1" xmlns="http://www.w3.org/2000/svg" xmlns:xlink="http://www.w3.org/1999/xlink" x="0px" y="0px"
	 width="100%" viewBox="0 0 496 496" enable-background="new 0 0 496 496" xml:space="preserve">
<path fill="#000000" opacity="1.000000" stroke="none" 
	d="
M207.075256,68.811432 
	C255.105377,58.319023 300.706635,63.699585 343.099487,88.134377 
	C394.117584,117.540665 425.378540,161.609619 435.312195,219.803680 
	C444.641052,274.454437 431.716827,324.074829 397.359497,367.491486 
	C366.554749,406.418640 326.022491,429.604065 276.769958,436.283112 
	C194.792831,447.399933 118.270355,406.033813 81.989555,331.452667 
	C68.247505,303.203674 62.382324,273.126160 64.006920,241.822968 
	C68.384216,157.479965 126.442787,89.141617 207.075256,68.811432 
M163.477631,105.022621 
	C98.654198,143.938156 66.906044,221.186646 87.043892,296.709442 
	C108.167992,375.931030 189.510788,430.668182 270.622375,419.927551 
	C296.310516,416.525940 320.428497,408.969421 341.965454,394.690948 
	C391.522522,361.835785 418.299530,315.703339 420.848602,255.963516 
	C421.998871,229.005081 417.093231,203.018234 405.099518,179.008438 
	C374.511414,117.775414 324.721191,84.824287 256.161865,81.279343 
	C223.199356,79.574966 192.577560,88.154053 163.477631,105.022621 
z"/>
<path fill="#000000" opacity="1.000000" stroke="none" 
	d="
M263.500183,131.240051 
	C253.857025,131.249893 244.660172,131.249893 233.894302,131.249893 
	C239.869797,120.759537 245.041275,111.680656 250.161362,102.692017 
	C253.090378,103.292854 253.469498,105.542473 254.409882,107.148827 
	C258.261383,113.727921 261.963531,120.394547 265.711578,127.034050 
	C266.920441,129.175461 267.768829,131.192474 263.500183,131.240051 
z"/>
<path fill="#000000" opacity="1.000000" stroke="none" 
	d="
M134.954681,244.658798 
	C135.946411,244.658447 136.444550,244.656631 136.942688,244.658432 
	C143.685135,244.682846 146.600906,249.236603 144.007065,255.522629 
	C143.252136,257.352173 141.804565,257.338806 140.335144,257.341766 
	C129.210220,257.364075 118.085083,257.316315 106.960243,257.355408 
	C102.054550,257.372650 103.068039,253.758316 103.079453,250.975571 
	C103.090927,248.182053 102.177574,244.618820 107.063713,244.658859 
	C116.195557,244.733704 125.328568,244.666901 134.954681,244.658798 
z"/>
<path fill="#000000" opacity="1.000000" stroke="none" 
	d="
M393.868652,257.374939 
	C383.092438,257.379456 372.795532,257.161407 362.514069,257.465485 
	C357.259827,257.620850 357.610474,254.485641 357.632629,251.045334 
	C357.654266,247.686005 357.046387,244.419342 362.410675,244.579559 
	C372.857758,244.891541 383.320892,244.680252 393.777283,244.659943 
	C396.271545,244.655090 398.907227,244.831528 398.270782,248.207977 
	C397.656311,251.467850 401.255157,256.759216 393.868652,257.374939 
z"/>
<path fill="#000000" opacity="1.000000" stroke="none" 
	d="
M244.651108,375.001373 
	C244.656601,370.355438 244.782028,366.204773 244.628952,362.064423 
	C244.512985,358.927887 245.637146,357.692230 248.904144,357.601410 
	C257.347565,357.366638 257.346558,357.228119 257.349670,365.853027 
	C257.352936,374.974762 257.102173,384.105988 257.449310,393.214478 
	C257.636688,398.131653 255.163391,398.622742 251.364319,398.421448 
	C247.916962,398.238800 244.220840,399.084320 244.565155,393.407990 
	C244.926010,387.459198 244.649353,381.471680 244.651108,375.001373 
z"/>
</svg>